<mxfile host="app.diagrams.net" modified="2024-04-07T17:31:48.900Z" agent="Mozilla/5.0 (Windows NT 10.0; Win64; x64) AppleWebKit/537.36 (KHTML, like Gecko) Chrome/123.0.0.0 Safari/537.36" etag="G7wDCKXgI7q-MW1UdxVJ" version="24.2.2" type="github">
  <diagram name="Página-1" id="dsCPThEfeaG7DZzmKHiU">
    <mxGraphModel dx="1434" dy="780" grid="1" gridSize="10" guides="1" tooltips="1" connect="1" arrows="1" fold="1" page="1" pageScale="1" pageWidth="827" pageHeight="1169" math="0" shadow="0">
      <root>
        <mxCell id="0" />
        <mxCell id="1" parent="0" />
        <mxCell id="30hyAyVBiut64HNMQ8CZ-18" style="edgeStyle=orthogonalEdgeStyle;rounded=0;orthogonalLoop=1;jettySize=auto;html=1;exitX=0;exitY=0;exitDx=0;exitDy=0;endArrow=oval;endFill=0;" edge="1" parent="1" source="30hyAyVBiut64HNMQ8CZ-2" target="30hyAyVBiut64HNMQ8CZ-3">
          <mxGeometry relative="1" as="geometry" />
        </mxCell>
        <mxCell id="30hyAyVBiut64HNMQ8CZ-19" style="edgeStyle=orthogonalEdgeStyle;rounded=0;orthogonalLoop=1;jettySize=auto;html=1;exitX=1;exitY=0;exitDx=0;exitDy=0;endArrow=oval;endFill=0;" edge="1" parent="1" source="30hyAyVBiut64HNMQ8CZ-2" target="30hyAyVBiut64HNMQ8CZ-4">
          <mxGeometry relative="1" as="geometry" />
        </mxCell>
        <mxCell id="30hyAyVBiut64HNMQ8CZ-20" style="edgeStyle=orthogonalEdgeStyle;rounded=0;orthogonalLoop=1;jettySize=auto;html=1;exitX=0;exitY=1;exitDx=0;exitDy=0;endArrow=oval;endFill=0;" edge="1" parent="1" source="30hyAyVBiut64HNMQ8CZ-2" target="30hyAyVBiut64HNMQ8CZ-6">
          <mxGeometry relative="1" as="geometry" />
        </mxCell>
        <mxCell id="30hyAyVBiut64HNMQ8CZ-46" style="edgeStyle=orthogonalEdgeStyle;rounded=0;orthogonalLoop=1;jettySize=auto;html=1;endArrow=none;endFill=0;" edge="1" parent="1" source="30hyAyVBiut64HNMQ8CZ-2" target="30hyAyVBiut64HNMQ8CZ-45">
          <mxGeometry relative="1" as="geometry" />
        </mxCell>
        <mxCell id="30hyAyVBiut64HNMQ8CZ-50" value="(1,n)" style="edgeLabel;html=1;align=center;verticalAlign=middle;resizable=0;points=[];" vertex="1" connectable="0" parent="30hyAyVBiut64HNMQ8CZ-46">
          <mxGeometry x="0.1455" y="3" relative="1" as="geometry">
            <mxPoint x="-13" y="-17" as="offset" />
          </mxGeometry>
        </mxCell>
        <mxCell id="30hyAyVBiut64HNMQ8CZ-2" value="Cliente" style="rounded=0;whiteSpace=wrap;html=1;" vertex="1" parent="1">
          <mxGeometry x="120" y="122.5" width="120" height="60" as="geometry" />
        </mxCell>
        <mxCell id="30hyAyVBiut64HNMQ8CZ-3" value="Endereço" style="text;html=1;align=center;verticalAlign=middle;whiteSpace=wrap;rounded=0;" vertex="1" parent="1">
          <mxGeometry x="90" y="42.5" width="60" height="30" as="geometry" />
        </mxCell>
        <mxCell id="30hyAyVBiut64HNMQ8CZ-4" value="Telefone" style="text;html=1;align=center;verticalAlign=middle;whiteSpace=wrap;rounded=0;" vertex="1" parent="1">
          <mxGeometry x="210" y="42.5" width="60" height="30" as="geometry" />
        </mxCell>
        <mxCell id="30hyAyVBiut64HNMQ8CZ-6" value="Livros_Comprados" style="text;html=1;align=center;verticalAlign=middle;whiteSpace=wrap;rounded=0;" vertex="1" parent="1">
          <mxGeometry x="90" y="232.5" width="60" height="30" as="geometry" />
        </mxCell>
        <mxCell id="30hyAyVBiut64HNMQ8CZ-17" style="edgeStyle=orthogonalEdgeStyle;rounded=0;orthogonalLoop=1;jettySize=auto;html=1;exitX=1;exitY=0.5;exitDx=0;exitDy=0;endArrow=none;endFill=0;" edge="1" parent="1" source="30hyAyVBiut64HNMQ8CZ-8" target="30hyAyVBiut64HNMQ8CZ-2">
          <mxGeometry relative="1" as="geometry" />
        </mxCell>
        <mxCell id="30hyAyVBiut64HNMQ8CZ-8" value="" style="triangle;whiteSpace=wrap;html=1;direction=north;" vertex="1" parent="1">
          <mxGeometry x="140" y="312.5" width="80" height="60" as="geometry" />
        </mxCell>
        <mxCell id="30hyAyVBiut64HNMQ8CZ-13" style="edgeStyle=orthogonalEdgeStyle;rounded=0;orthogonalLoop=1;jettySize=auto;html=1;endArrow=oval;endFill=1;" edge="1" parent="1" source="30hyAyVBiut64HNMQ8CZ-9" target="30hyAyVBiut64HNMQ8CZ-11">
          <mxGeometry relative="1" as="geometry" />
        </mxCell>
        <mxCell id="30hyAyVBiut64HNMQ8CZ-15" style="edgeStyle=orthogonalEdgeStyle;rounded=0;orthogonalLoop=1;jettySize=auto;html=1;exitX=1;exitY=0;exitDx=0;exitDy=0;endArrow=none;endFill=0;" edge="1" parent="1" source="30hyAyVBiut64HNMQ8CZ-9" target="30hyAyVBiut64HNMQ8CZ-8">
          <mxGeometry relative="1" as="geometry" />
        </mxCell>
        <mxCell id="30hyAyVBiut64HNMQ8CZ-9" value="Cliente" style="rounded=0;whiteSpace=wrap;html=1;" vertex="1" parent="1">
          <mxGeometry y="497.5" width="120" height="60" as="geometry" />
        </mxCell>
        <mxCell id="30hyAyVBiut64HNMQ8CZ-14" style="edgeStyle=orthogonalEdgeStyle;rounded=0;orthogonalLoop=1;jettySize=auto;html=1;endArrow=oval;endFill=1;" edge="1" parent="1" source="30hyAyVBiut64HNMQ8CZ-10" target="30hyAyVBiut64HNMQ8CZ-12">
          <mxGeometry relative="1" as="geometry" />
        </mxCell>
        <mxCell id="30hyAyVBiut64HNMQ8CZ-16" style="edgeStyle=orthogonalEdgeStyle;rounded=0;orthogonalLoop=1;jettySize=auto;html=1;exitX=0;exitY=0;exitDx=0;exitDy=0;endArrow=none;endFill=0;" edge="1" parent="1" source="30hyAyVBiut64HNMQ8CZ-10" target="30hyAyVBiut64HNMQ8CZ-8">
          <mxGeometry relative="1" as="geometry" />
        </mxCell>
        <mxCell id="30hyAyVBiut64HNMQ8CZ-10" value="Cliente" style="rounded=0;whiteSpace=wrap;html=1;" vertex="1" parent="1">
          <mxGeometry x="240" y="497.5" width="120" height="60" as="geometry" />
        </mxCell>
        <mxCell id="30hyAyVBiut64HNMQ8CZ-11" value="CPF" style="text;html=1;align=center;verticalAlign=middle;whiteSpace=wrap;rounded=0;" vertex="1" parent="1">
          <mxGeometry x="30" y="432.5" width="60" height="30" as="geometry" />
        </mxCell>
        <mxCell id="30hyAyVBiut64HNMQ8CZ-12" value="CNPJ" style="text;html=1;align=center;verticalAlign=middle;whiteSpace=wrap;rounded=0;" vertex="1" parent="1">
          <mxGeometry x="270" y="432.5" width="60" height="30" as="geometry" />
        </mxCell>
        <mxCell id="30hyAyVBiut64HNMQ8CZ-21" value="t" style="text;html=1;align=center;verticalAlign=middle;whiteSpace=wrap;rounded=0;" vertex="1" parent="1">
          <mxGeometry x="180" y="312.5" width="60" height="30" as="geometry" />
        </mxCell>
        <mxCell id="30hyAyVBiut64HNMQ8CZ-27" style="edgeStyle=orthogonalEdgeStyle;rounded=0;orthogonalLoop=1;jettySize=auto;html=1;exitX=0.25;exitY=0;exitDx=0;exitDy=0;endArrow=oval;endFill=1;" edge="1" parent="1" source="30hyAyVBiut64HNMQ8CZ-22" target="30hyAyVBiut64HNMQ8CZ-23">
          <mxGeometry relative="1" as="geometry" />
        </mxCell>
        <mxCell id="30hyAyVBiut64HNMQ8CZ-29" style="edgeStyle=orthogonalEdgeStyle;rounded=0;orthogonalLoop=1;jettySize=auto;html=1;exitX=0.75;exitY=0;exitDx=0;exitDy=0;endArrow=oval;endFill=0;" edge="1" parent="1" source="30hyAyVBiut64HNMQ8CZ-22" target="30hyAyVBiut64HNMQ8CZ-24">
          <mxGeometry relative="1" as="geometry" />
        </mxCell>
        <mxCell id="30hyAyVBiut64HNMQ8CZ-30" style="edgeStyle=orthogonalEdgeStyle;rounded=0;orthogonalLoop=1;jettySize=auto;html=1;exitX=0.25;exitY=1;exitDx=0;exitDy=0;endArrow=oval;endFill=0;" edge="1" parent="1" source="30hyAyVBiut64HNMQ8CZ-22" target="30hyAyVBiut64HNMQ8CZ-25">
          <mxGeometry relative="1" as="geometry">
            <Array as="points">
              <mxPoint x="1010" y="180" />
            </Array>
          </mxGeometry>
        </mxCell>
        <mxCell id="30hyAyVBiut64HNMQ8CZ-31" style="edgeStyle=orthogonalEdgeStyle;rounded=0;orthogonalLoop=1;jettySize=auto;html=1;exitX=0.75;exitY=1;exitDx=0;exitDy=0;endArrow=oval;endFill=0;" edge="1" parent="1" source="30hyAyVBiut64HNMQ8CZ-22" target="30hyAyVBiut64HNMQ8CZ-26">
          <mxGeometry relative="1" as="geometry">
            <Array as="points">
              <mxPoint x="1090" y="180" />
            </Array>
          </mxGeometry>
        </mxCell>
        <mxCell id="30hyAyVBiut64HNMQ8CZ-53" style="edgeStyle=orthogonalEdgeStyle;rounded=0;orthogonalLoop=1;jettySize=auto;html=1;" edge="1" parent="1" source="30hyAyVBiut64HNMQ8CZ-22" target="30hyAyVBiut64HNMQ8CZ-51">
          <mxGeometry relative="1" as="geometry" />
        </mxCell>
        <mxCell id="30hyAyVBiut64HNMQ8CZ-55" value="(1,n)" style="edgeLabel;html=1;align=center;verticalAlign=middle;resizable=0;points=[];" vertex="1" connectable="0" parent="30hyAyVBiut64HNMQ8CZ-53">
          <mxGeometry x="-0.0667" y="-1" relative="1" as="geometry">
            <mxPoint y="-19" as="offset" />
          </mxGeometry>
        </mxCell>
        <mxCell id="30hyAyVBiut64HNMQ8CZ-22" value="Editora" style="rounded=0;whiteSpace=wrap;html=1;" vertex="1" parent="1">
          <mxGeometry x="990" y="122.5" width="120" height="60" as="geometry" />
        </mxCell>
        <mxCell id="30hyAyVBiut64HNMQ8CZ-23" value="Codigo" style="text;html=1;align=center;verticalAlign=middle;whiteSpace=wrap;rounded=0;" vertex="1" parent="1">
          <mxGeometry x="990" y="40" width="60" height="30" as="geometry" />
        </mxCell>
        <mxCell id="30hyAyVBiut64HNMQ8CZ-24" value="Telefone" style="text;html=1;align=center;verticalAlign=middle;whiteSpace=wrap;rounded=0;" vertex="1" parent="1">
          <mxGeometry x="1050" y="40" width="60" height="30" as="geometry" />
        </mxCell>
        <mxCell id="30hyAyVBiut64HNMQ8CZ-25" value="Nome_Gerente" style="text;html=1;align=center;verticalAlign=middle;whiteSpace=wrap;rounded=0;" vertex="1" parent="1">
          <mxGeometry x="980" y="230" width="60" height="30" as="geometry" />
        </mxCell>
        <mxCell id="30hyAyVBiut64HNMQ8CZ-26" value="Endereço" style="text;html=1;align=center;verticalAlign=middle;whiteSpace=wrap;rounded=0;" vertex="1" parent="1">
          <mxGeometry x="1060" y="225" width="60" height="40" as="geometry" />
        </mxCell>
        <mxCell id="30hyAyVBiut64HNMQ8CZ-32" style="edgeStyle=orthogonalEdgeStyle;rounded=0;orthogonalLoop=1;jettySize=auto;html=1;exitX=0.25;exitY=0;exitDx=0;exitDy=0;endArrow=oval;endFill=1;" edge="1" parent="1" source="30hyAyVBiut64HNMQ8CZ-36" target="30hyAyVBiut64HNMQ8CZ-37">
          <mxGeometry relative="1" as="geometry">
            <Array as="points">
              <mxPoint x="570" y="122.5" />
            </Array>
          </mxGeometry>
        </mxCell>
        <mxCell id="30hyAyVBiut64HNMQ8CZ-33" style="edgeStyle=orthogonalEdgeStyle;rounded=0;orthogonalLoop=1;jettySize=auto;html=1;exitX=0.75;exitY=0;exitDx=0;exitDy=0;endArrow=oval;endFill=0;" edge="1" parent="1" source="30hyAyVBiut64HNMQ8CZ-36" target="30hyAyVBiut64HNMQ8CZ-38">
          <mxGeometry relative="1" as="geometry">
            <Array as="points">
              <mxPoint x="630" y="122.5" />
            </Array>
          </mxGeometry>
        </mxCell>
        <mxCell id="30hyAyVBiut64HNMQ8CZ-34" style="edgeStyle=orthogonalEdgeStyle;rounded=0;orthogonalLoop=1;jettySize=auto;html=1;exitX=0.25;exitY=1;exitDx=0;exitDy=0;endArrow=oval;endFill=0;" edge="1" parent="1" source="30hyAyVBiut64HNMQ8CZ-36" target="30hyAyVBiut64HNMQ8CZ-39">
          <mxGeometry relative="1" as="geometry">
            <Array as="points">
              <mxPoint x="590" y="182.5" />
            </Array>
          </mxGeometry>
        </mxCell>
        <mxCell id="30hyAyVBiut64HNMQ8CZ-35" style="edgeStyle=orthogonalEdgeStyle;rounded=0;orthogonalLoop=1;jettySize=auto;html=1;exitX=0.75;exitY=1;exitDx=0;exitDy=0;endArrow=oval;endFill=0;" edge="1" parent="1" source="30hyAyVBiut64HNMQ8CZ-36" target="30hyAyVBiut64HNMQ8CZ-40">
          <mxGeometry relative="1" as="geometry">
            <Array as="points">
              <mxPoint x="670" y="182.5" />
            </Array>
          </mxGeometry>
        </mxCell>
        <mxCell id="30hyAyVBiut64HNMQ8CZ-42" style="edgeStyle=orthogonalEdgeStyle;rounded=0;orthogonalLoop=1;jettySize=auto;html=1;exitX=1;exitY=0;exitDx=0;exitDy=0;endArrow=oval;endFill=0;" edge="1" parent="1" source="30hyAyVBiut64HNMQ8CZ-36" target="30hyAyVBiut64HNMQ8CZ-41">
          <mxGeometry relative="1" as="geometry" />
        </mxCell>
        <mxCell id="30hyAyVBiut64HNMQ8CZ-52" style="edgeStyle=orthogonalEdgeStyle;rounded=0;orthogonalLoop=1;jettySize=auto;html=1;" edge="1" parent="1" source="30hyAyVBiut64HNMQ8CZ-36" target="30hyAyVBiut64HNMQ8CZ-51">
          <mxGeometry relative="1" as="geometry" />
        </mxCell>
        <mxCell id="30hyAyVBiut64HNMQ8CZ-54" value="(1,n)" style="edgeLabel;html=1;align=center;verticalAlign=middle;resizable=0;points=[];" vertex="1" connectable="0" parent="30hyAyVBiut64HNMQ8CZ-52">
          <mxGeometry y="-1" relative="1" as="geometry">
            <mxPoint x="5" y="-21" as="offset" />
          </mxGeometry>
        </mxCell>
        <mxCell id="30hyAyVBiut64HNMQ8CZ-36" value="Livro" style="rounded=0;whiteSpace=wrap;html=1;" vertex="1" parent="1">
          <mxGeometry x="570" y="122.5" width="120" height="60" as="geometry" />
        </mxCell>
        <mxCell id="30hyAyVBiut64HNMQ8CZ-37" value="ISBN" style="text;html=1;align=center;verticalAlign=middle;whiteSpace=wrap;rounded=0;" vertex="1" parent="1">
          <mxGeometry x="540" y="42.5" width="60" height="30" as="geometry" />
        </mxCell>
        <mxCell id="30hyAyVBiut64HNMQ8CZ-38" value="Editora" style="text;html=1;align=center;verticalAlign=middle;whiteSpace=wrap;rounded=0;" vertex="1" parent="1">
          <mxGeometry x="600" y="42.5" width="60" height="30" as="geometry" />
        </mxCell>
        <mxCell id="30hyAyVBiut64HNMQ8CZ-39" value="Nome_Autor" style="text;html=1;align=center;verticalAlign=middle;whiteSpace=wrap;rounded=0;" vertex="1" parent="1">
          <mxGeometry x="560" y="232.5" width="60" height="30" as="geometry" />
        </mxCell>
        <mxCell id="30hyAyVBiut64HNMQ8CZ-40" value="Assunto" style="text;html=1;align=center;verticalAlign=middle;whiteSpace=wrap;rounded=0;" vertex="1" parent="1">
          <mxGeometry x="640" y="227.5" width="60" height="40" as="geometry" />
        </mxCell>
        <mxCell id="30hyAyVBiut64HNMQ8CZ-41" value="Editora" style="text;html=1;align=center;verticalAlign=middle;whiteSpace=wrap;rounded=0;" vertex="1" parent="1">
          <mxGeometry x="660" y="42.5" width="60" height="30" as="geometry" />
        </mxCell>
        <mxCell id="30hyAyVBiut64HNMQ8CZ-48" style="edgeStyle=orthogonalEdgeStyle;rounded=0;orthogonalLoop=1;jettySize=auto;html=1;endArrow=none;endFill=0;" edge="1" parent="1" source="30hyAyVBiut64HNMQ8CZ-45" target="30hyAyVBiut64HNMQ8CZ-36">
          <mxGeometry relative="1" as="geometry" />
        </mxCell>
        <mxCell id="30hyAyVBiut64HNMQ8CZ-49" value="n" style="edgeLabel;html=1;align=center;verticalAlign=middle;resizable=0;points=[];" vertex="1" connectable="0" parent="30hyAyVBiut64HNMQ8CZ-48">
          <mxGeometry x="0.1" y="2" relative="1" as="geometry">
            <mxPoint x="-5" y="-18" as="offset" />
          </mxGeometry>
        </mxCell>
        <mxCell id="30hyAyVBiut64HNMQ8CZ-45" value="Compra" style="shape=rhombus;perimeter=rhombusPerimeter;whiteSpace=wrap;html=1;align=center;" vertex="1" parent="1">
          <mxGeometry x="350" y="122.5" width="120" height="60" as="geometry" />
        </mxCell>
        <mxCell id="30hyAyVBiut64HNMQ8CZ-51" value="Fornece" style="shape=rhombus;perimeter=rhombusPerimeter;whiteSpace=wrap;html=1;align=center;" vertex="1" parent="1">
          <mxGeometry x="780" y="122.5" width="120" height="60" as="geometry" />
        </mxCell>
        <mxCell id="30hyAyVBiut64HNMQ8CZ-56" value="Ex01" style="text;strokeColor=none;fillColor=none;html=1;fontSize=24;fontStyle=1;verticalAlign=middle;align=center;" vertex="1" parent="1">
          <mxGeometry width="100" height="40" as="geometry" />
        </mxCell>
        <mxCell id="30hyAyVBiut64HNMQ8CZ-57" value="Ex02" style="text;strokeColor=none;fillColor=none;html=1;fontSize=24;fontStyle=1;verticalAlign=middle;align=center;" vertex="1" parent="1">
          <mxGeometry y="670" width="100" height="40" as="geometry" />
        </mxCell>
        <mxCell id="30hyAyVBiut64HNMQ8CZ-62" style="edgeStyle=orthogonalEdgeStyle;rounded=0;orthogonalLoop=1;jettySize=auto;html=1;endArrow=none;endFill=0;" edge="1" parent="1" source="30hyAyVBiut64HNMQ8CZ-59" target="30hyAyVBiut64HNMQ8CZ-61">
          <mxGeometry relative="1" as="geometry" />
        </mxCell>
        <mxCell id="30hyAyVBiut64HNMQ8CZ-66" value="(1,1)" style="edgeLabel;html=1;align=center;verticalAlign=middle;resizable=0;points=[];" vertex="1" connectable="0" parent="30hyAyVBiut64HNMQ8CZ-62">
          <mxGeometry x="0.2" relative="1" as="geometry">
            <mxPoint x="-12" y="-20" as="offset" />
          </mxGeometry>
        </mxCell>
        <mxCell id="30hyAyVBiut64HNMQ8CZ-87" style="edgeStyle=orthogonalEdgeStyle;rounded=0;orthogonalLoop=1;jettySize=auto;html=1;endArrow=none;endFill=0;" edge="1" parent="1" source="30hyAyVBiut64HNMQ8CZ-59" target="30hyAyVBiut64HNMQ8CZ-85">
          <mxGeometry relative="1" as="geometry" />
        </mxCell>
        <mxCell id="30hyAyVBiut64HNMQ8CZ-88" value="(1,n)" style="edgeLabel;html=1;align=center;verticalAlign=middle;resizable=0;points=[];" vertex="1" connectable="0" parent="30hyAyVBiut64HNMQ8CZ-87">
          <mxGeometry x="0.0286" relative="1" as="geometry">
            <mxPoint y="-20" as="offset" />
          </mxGeometry>
        </mxCell>
        <mxCell id="30hyAyVBiut64HNMQ8CZ-118" style="edgeStyle=orthogonalEdgeStyle;rounded=0;orthogonalLoop=1;jettySize=auto;html=1;endArrow=oval;endFill=1;" edge="1" parent="1" source="30hyAyVBiut64HNMQ8CZ-59" target="30hyAyVBiut64HNMQ8CZ-116">
          <mxGeometry relative="1" as="geometry" />
        </mxCell>
        <mxCell id="30hyAyVBiut64HNMQ8CZ-59" value="Alas" style="rounded=0;whiteSpace=wrap;html=1;" vertex="1" parent="1">
          <mxGeometry x="380" y="770" width="120" height="60" as="geometry" />
        </mxCell>
        <mxCell id="30hyAyVBiut64HNMQ8CZ-63" style="edgeStyle=orthogonalEdgeStyle;rounded=0;orthogonalLoop=1;jettySize=auto;html=1;endArrow=none;endFill=0;" edge="1" parent="1" source="30hyAyVBiut64HNMQ8CZ-60" target="30hyAyVBiut64HNMQ8CZ-61">
          <mxGeometry relative="1" as="geometry" />
        </mxCell>
        <mxCell id="30hyAyVBiut64HNMQ8CZ-65" value="(1,1)" style="edgeLabel;html=1;align=center;verticalAlign=middle;resizable=0;points=[];" vertex="1" connectable="0" parent="30hyAyVBiut64HNMQ8CZ-63">
          <mxGeometry x="0.1714" relative="1" as="geometry">
            <mxPoint x="11" y="-20" as="offset" />
          </mxGeometry>
        </mxCell>
        <mxCell id="30hyAyVBiut64HNMQ8CZ-71" style="edgeStyle=orthogonalEdgeStyle;rounded=0;orthogonalLoop=1;jettySize=auto;html=1;exitX=1;exitY=1;exitDx=0;exitDy=0;endArrow=none;endFill=0;" edge="1" parent="1" source="30hyAyVBiut64HNMQ8CZ-60" target="30hyAyVBiut64HNMQ8CZ-67">
          <mxGeometry relative="1" as="geometry">
            <Array as="points">
              <mxPoint x="850" y="920" />
              <mxPoint x="850" y="920" />
            </Array>
          </mxGeometry>
        </mxCell>
        <mxCell id="30hyAyVBiut64HNMQ8CZ-76" value="(1,1)" style="edgeLabel;html=1;align=center;verticalAlign=middle;resizable=0;points=[];" vertex="1" connectable="0" parent="30hyAyVBiut64HNMQ8CZ-71">
          <mxGeometry x="-0.12" y="-3" relative="1" as="geometry">
            <mxPoint x="-17" y="-4" as="offset" />
          </mxGeometry>
        </mxCell>
        <mxCell id="30hyAyVBiut64HNMQ8CZ-98" value="Enfermeira_Chefe" style="edgeLabel;html=1;align=center;verticalAlign=middle;resizable=0;points=[];" vertex="1" connectable="0" parent="30hyAyVBiut64HNMQ8CZ-71">
          <mxGeometry x="-0.16" y="3" relative="1" as="geometry">
            <mxPoint x="57" as="offset" />
          </mxGeometry>
        </mxCell>
        <mxCell id="30hyAyVBiut64HNMQ8CZ-73" style="edgeStyle=orthogonalEdgeStyle;rounded=0;orthogonalLoop=1;jettySize=auto;html=1;exitX=0;exitY=1;exitDx=0;exitDy=0;endArrow=none;endFill=0;" edge="1" parent="1" source="30hyAyVBiut64HNMQ8CZ-60" target="30hyAyVBiut64HNMQ8CZ-67">
          <mxGeometry relative="1" as="geometry">
            <Array as="points">
              <mxPoint x="760" y="890" />
              <mxPoint x="760" y="890" />
            </Array>
          </mxGeometry>
        </mxCell>
        <mxCell id="30hyAyVBiut64HNMQ8CZ-74" value="Enfermeira" style="edgeLabel;html=1;align=center;verticalAlign=middle;resizable=0;points=[];" vertex="1" connectable="0" parent="30hyAyVBiut64HNMQ8CZ-73">
          <mxGeometry x="-0.36" y="-3" relative="1" as="geometry">
            <mxPoint x="-37" y="8" as="offset" />
          </mxGeometry>
        </mxCell>
        <mxCell id="30hyAyVBiut64HNMQ8CZ-77" value="(1,n)" style="edgeLabel;html=1;align=center;verticalAlign=middle;resizable=0;points=[];" vertex="1" connectable="0" parent="30hyAyVBiut64HNMQ8CZ-73">
          <mxGeometry x="-0.22" y="1" relative="1" as="geometry">
            <mxPoint x="19" as="offset" />
          </mxGeometry>
        </mxCell>
        <mxCell id="30hyAyVBiut64HNMQ8CZ-83" style="edgeStyle=orthogonalEdgeStyle;rounded=0;orthogonalLoop=1;jettySize=auto;html=1;endArrow=oval;endFill=1;" edge="1" parent="1" source="30hyAyVBiut64HNMQ8CZ-60" target="30hyAyVBiut64HNMQ8CZ-78">
          <mxGeometry relative="1" as="geometry">
            <Array as="points">
              <mxPoint x="855" y="760" />
              <mxPoint x="855" y="760" />
            </Array>
          </mxGeometry>
        </mxCell>
        <mxCell id="30hyAyVBiut64HNMQ8CZ-97" style="edgeStyle=orthogonalEdgeStyle;rounded=0;orthogonalLoop=1;jettySize=auto;html=1;exitX=0.25;exitY=0;exitDx=0;exitDy=0;endArrow=oval;endFill=0;" edge="1" parent="1" source="30hyAyVBiut64HNMQ8CZ-60" target="30hyAyVBiut64HNMQ8CZ-96">
          <mxGeometry relative="1" as="geometry">
            <Array as="points">
              <mxPoint x="784" y="770" />
            </Array>
          </mxGeometry>
        </mxCell>
        <mxCell id="30hyAyVBiut64HNMQ8CZ-60" value="Enfermeira" style="rounded=0;whiteSpace=wrap;html=1;" vertex="1" parent="1">
          <mxGeometry x="760" y="770" width="120" height="60" as="geometry" />
        </mxCell>
        <mxCell id="30hyAyVBiut64HNMQ8CZ-61" value="Possui" style="shape=rhombus;perimeter=rhombusPerimeter;whiteSpace=wrap;html=1;align=center;" vertex="1" parent="1">
          <mxGeometry x="570" y="770" width="120" height="60" as="geometry" />
        </mxCell>
        <mxCell id="30hyAyVBiut64HNMQ8CZ-67" value="reporta" style="shape=rhombus;perimeter=rhombusPerimeter;whiteSpace=wrap;html=1;align=center;" vertex="1" parent="1">
          <mxGeometry x="760" y="900" width="120" height="60" as="geometry" />
        </mxCell>
        <mxCell id="30hyAyVBiut64HNMQ8CZ-78" value="CRE" style="text;html=1;align=center;verticalAlign=middle;resizable=0;points=[];autosize=1;strokeColor=none;fillColor=none;" vertex="1" parent="1">
          <mxGeometry x="830" y="710" width="50" height="30" as="geometry" />
        </mxCell>
        <mxCell id="30hyAyVBiut64HNMQ8CZ-82" style="edgeStyle=orthogonalEdgeStyle;rounded=0;orthogonalLoop=1;jettySize=auto;html=1;exitX=0.5;exitY=0;exitDx=0;exitDy=0;endArrow=oval;endFill=1;" edge="1" parent="1" source="30hyAyVBiut64HNMQ8CZ-79" target="30hyAyVBiut64HNMQ8CZ-80">
          <mxGeometry relative="1" as="geometry" />
        </mxCell>
        <mxCell id="30hyAyVBiut64HNMQ8CZ-101" style="edgeStyle=orthogonalEdgeStyle;rounded=0;orthogonalLoop=1;jettySize=auto;html=1;exitX=0.75;exitY=1;exitDx=0;exitDy=0;endArrow=oval;endFill=0;" edge="1" parent="1" source="30hyAyVBiut64HNMQ8CZ-79" target="30hyAyVBiut64HNMQ8CZ-100">
          <mxGeometry relative="1" as="geometry">
            <Array as="points">
              <mxPoint x="480" y="1109" />
            </Array>
          </mxGeometry>
        </mxCell>
        <mxCell id="30hyAyVBiut64HNMQ8CZ-102" style="edgeStyle=orthogonalEdgeStyle;rounded=0;orthogonalLoop=1;jettySize=auto;html=1;exitX=0.25;exitY=1;exitDx=0;exitDy=0;endArrow=oval;endFill=0;" edge="1" parent="1" source="30hyAyVBiut64HNMQ8CZ-79" target="30hyAyVBiut64HNMQ8CZ-99">
          <mxGeometry relative="1" as="geometry">
            <Array as="points">
              <mxPoint x="400" y="1109" />
            </Array>
          </mxGeometry>
        </mxCell>
        <mxCell id="30hyAyVBiut64HNMQ8CZ-112" style="edgeStyle=orthogonalEdgeStyle;rounded=0;orthogonalLoop=1;jettySize=auto;html=1;endArrow=none;endFill=0;" edge="1" parent="1" source="30hyAyVBiut64HNMQ8CZ-79" target="30hyAyVBiut64HNMQ8CZ-111">
          <mxGeometry relative="1" as="geometry" />
        </mxCell>
        <mxCell id="30hyAyVBiut64HNMQ8CZ-115" value="n" style="edgeLabel;html=1;align=center;verticalAlign=middle;resizable=0;points=[];" vertex="1" connectable="0" parent="30hyAyVBiut64HNMQ8CZ-112">
          <mxGeometry x="0.2" relative="1" as="geometry">
            <mxPoint x="12" y="-19" as="offset" />
          </mxGeometry>
        </mxCell>
        <mxCell id="30hyAyVBiut64HNMQ8CZ-121" style="edgeStyle=orthogonalEdgeStyle;rounded=0;orthogonalLoop=1;jettySize=auto;html=1;endArrow=none;endFill=0;" edge="1" parent="1" source="30hyAyVBiut64HNMQ8CZ-79" target="30hyAyVBiut64HNMQ8CZ-120">
          <mxGeometry relative="1" as="geometry" />
        </mxCell>
        <mxCell id="30hyAyVBiut64HNMQ8CZ-124" value="(1,n)" style="edgeLabel;html=1;align=center;verticalAlign=middle;resizable=0;points=[];" vertex="1" connectable="0" parent="30hyAyVBiut64HNMQ8CZ-121">
          <mxGeometry x="0.0571" y="-1" relative="1" as="geometry">
            <mxPoint y="-20" as="offset" />
          </mxGeometry>
        </mxCell>
        <mxCell id="30hyAyVBiut64HNMQ8CZ-79" value="Medico" style="rounded=0;whiteSpace=wrap;html=1;" vertex="1" parent="1">
          <mxGeometry x="380" y="1049" width="120" height="60" as="geometry" />
        </mxCell>
        <mxCell id="30hyAyVBiut64HNMQ8CZ-80" value="CRM" style="text;html=1;align=center;verticalAlign=middle;resizable=0;points=[];autosize=1;strokeColor=none;fillColor=none;" vertex="1" parent="1">
          <mxGeometry x="415" y="989" width="50" height="30" as="geometry" />
        </mxCell>
        <mxCell id="30hyAyVBiut64HNMQ8CZ-86" style="edgeStyle=orthogonalEdgeStyle;rounded=0;orthogonalLoop=1;jettySize=auto;html=1;endArrow=none;endFill=0;" edge="1" parent="1" source="30hyAyVBiut64HNMQ8CZ-84" target="30hyAyVBiut64HNMQ8CZ-85">
          <mxGeometry relative="1" as="geometry" />
        </mxCell>
        <mxCell id="30hyAyVBiut64HNMQ8CZ-89" value="(1,1)" style="edgeLabel;html=1;align=center;verticalAlign=middle;resizable=0;points=[];" vertex="1" connectable="0" parent="30hyAyVBiut64HNMQ8CZ-86">
          <mxGeometry x="0.2286" y="-1" relative="1" as="geometry">
            <mxPoint x="-13" y="-21" as="offset" />
          </mxGeometry>
        </mxCell>
        <mxCell id="30hyAyVBiut64HNMQ8CZ-91" style="edgeStyle=orthogonalEdgeStyle;rounded=0;orthogonalLoop=1;jettySize=auto;html=1;entryX=0.5;entryY=1;entryDx=0;entryDy=0;endArrow=oval;endFill=1;" edge="1" parent="1" source="30hyAyVBiut64HNMQ8CZ-84" target="30hyAyVBiut64HNMQ8CZ-90">
          <mxGeometry relative="1" as="geometry" />
        </mxCell>
        <mxCell id="30hyAyVBiut64HNMQ8CZ-106" style="edgeStyle=orthogonalEdgeStyle;rounded=0;orthogonalLoop=1;jettySize=auto;html=1;exitX=0.5;exitY=1;exitDx=0;exitDy=0;endArrow=none;endFill=0;" edge="1" parent="1" source="30hyAyVBiut64HNMQ8CZ-84" target="30hyAyVBiut64HNMQ8CZ-105">
          <mxGeometry relative="1" as="geometry" />
        </mxCell>
        <mxCell id="30hyAyVBiut64HNMQ8CZ-109" value="(1,n)" style="edgeLabel;html=1;align=center;verticalAlign=middle;resizable=0;points=[];" vertex="1" connectable="0" parent="30hyAyVBiut64HNMQ8CZ-106">
          <mxGeometry x="-0.05" relative="1" as="geometry">
            <mxPoint x="20" as="offset" />
          </mxGeometry>
        </mxCell>
        <mxCell id="30hyAyVBiut64HNMQ8CZ-84" value="Hospital" style="rounded=0;whiteSpace=wrap;html=1;" vertex="1" parent="1">
          <mxGeometry y="770" width="120" height="60" as="geometry" />
        </mxCell>
        <mxCell id="30hyAyVBiut64HNMQ8CZ-85" value="Possui" style="shape=rhombus;perimeter=rhombusPerimeter;whiteSpace=wrap;html=1;align=center;" vertex="1" parent="1">
          <mxGeometry x="190" y="770" width="120" height="60" as="geometry" />
        </mxCell>
        <mxCell id="30hyAyVBiut64HNMQ8CZ-90" value="CNPJ" style="text;html=1;align=center;verticalAlign=middle;whiteSpace=wrap;rounded=0;" vertex="1" parent="1">
          <mxGeometry x="30" y="710" width="60" height="30" as="geometry" />
        </mxCell>
        <mxCell id="30hyAyVBiut64HNMQ8CZ-103" style="edgeStyle=orthogonalEdgeStyle;rounded=0;orthogonalLoop=1;jettySize=auto;html=1;exitX=0.25;exitY=1;exitDx=0;exitDy=0;endArrow=oval;endFill=1;" edge="1" parent="1" source="30hyAyVBiut64HNMQ8CZ-92" target="30hyAyVBiut64HNMQ8CZ-94">
          <mxGeometry relative="1" as="geometry" />
        </mxCell>
        <mxCell id="30hyAyVBiut64HNMQ8CZ-104" style="edgeStyle=orthogonalEdgeStyle;rounded=0;orthogonalLoop=1;jettySize=auto;html=1;exitX=0.75;exitY=1;exitDx=0;exitDy=0;endArrow=oval;endFill=0;" edge="1" parent="1" source="30hyAyVBiut64HNMQ8CZ-92" target="30hyAyVBiut64HNMQ8CZ-95">
          <mxGeometry relative="1" as="geometry" />
        </mxCell>
        <mxCell id="30hyAyVBiut64HNMQ8CZ-113" style="edgeStyle=orthogonalEdgeStyle;rounded=0;orthogonalLoop=1;jettySize=auto;html=1;endArrow=none;endFill=0;" edge="1" parent="1" source="30hyAyVBiut64HNMQ8CZ-92" target="30hyAyVBiut64HNMQ8CZ-111">
          <mxGeometry relative="1" as="geometry" />
        </mxCell>
        <mxCell id="30hyAyVBiut64HNMQ8CZ-114" value="(1,n)" style="edgeLabel;html=1;align=center;verticalAlign=middle;resizable=0;points=[];" vertex="1" connectable="0" parent="30hyAyVBiut64HNMQ8CZ-113">
          <mxGeometry x="-0.0286" y="1" relative="1" as="geometry">
            <mxPoint y="-18" as="offset" />
          </mxGeometry>
        </mxCell>
        <mxCell id="30hyAyVBiut64HNMQ8CZ-92" value="Plano_De_Saude" style="rounded=0;whiteSpace=wrap;html=1;" vertex="1" parent="1">
          <mxGeometry y="1049" width="120" height="60" as="geometry" />
        </mxCell>
        <mxCell id="30hyAyVBiut64HNMQ8CZ-94" value="Nome" style="text;html=1;align=center;verticalAlign=middle;whiteSpace=wrap;rounded=0;" vertex="1" parent="1">
          <mxGeometry y="1139" width="60" height="30" as="geometry" />
        </mxCell>
        <mxCell id="30hyAyVBiut64HNMQ8CZ-95" value="Telefone" style="text;html=1;align=center;verticalAlign=middle;whiteSpace=wrap;rounded=0;" vertex="1" parent="1">
          <mxGeometry x="60" y="1139" width="60" height="30" as="geometry" />
        </mxCell>
        <mxCell id="30hyAyVBiut64HNMQ8CZ-96" value="Nome" style="text;html=1;align=center;verticalAlign=middle;resizable=0;points=[];autosize=1;strokeColor=none;fillColor=none;" vertex="1" parent="1">
          <mxGeometry x="754" y="710" width="60" height="30" as="geometry" />
        </mxCell>
        <mxCell id="30hyAyVBiut64HNMQ8CZ-99" value="Nome" style="text;html=1;align=center;verticalAlign=middle;whiteSpace=wrap;rounded=0;" vertex="1" parent="1">
          <mxGeometry x="370" y="1139" width="60" height="30" as="geometry" />
        </mxCell>
        <mxCell id="30hyAyVBiut64HNMQ8CZ-100" value="Especialidade" style="text;html=1;align=center;verticalAlign=middle;whiteSpace=wrap;rounded=0;" vertex="1" parent="1">
          <mxGeometry x="450" y="1139" width="60" height="30" as="geometry" />
        </mxCell>
        <mxCell id="30hyAyVBiut64HNMQ8CZ-107" style="edgeStyle=orthogonalEdgeStyle;rounded=0;orthogonalLoop=1;jettySize=auto;html=1;endArrow=none;endFill=0;" edge="1" parent="1" source="30hyAyVBiut64HNMQ8CZ-105" target="30hyAyVBiut64HNMQ8CZ-92">
          <mxGeometry relative="1" as="geometry" />
        </mxCell>
        <mxCell id="30hyAyVBiut64HNMQ8CZ-108" value="(1,n)" style="edgeLabel;html=1;align=center;verticalAlign=middle;resizable=0;points=[];" vertex="1" connectable="0" parent="30hyAyVBiut64HNMQ8CZ-107">
          <mxGeometry x="0.0127" y="4" relative="1" as="geometry">
            <mxPoint x="16" as="offset" />
          </mxGeometry>
        </mxCell>
        <mxCell id="30hyAyVBiut64HNMQ8CZ-105" value="Credencia" style="shape=rhombus;perimeter=rhombusPerimeter;whiteSpace=wrap;html=1;align=center;" vertex="1" parent="1">
          <mxGeometry y="910" width="120" height="60" as="geometry" />
        </mxCell>
        <mxCell id="30hyAyVBiut64HNMQ8CZ-111" value="Credenciado" style="shape=rhombus;perimeter=rhombusPerimeter;whiteSpace=wrap;html=1;align=center;" vertex="1" parent="1">
          <mxGeometry x="190" y="1049" width="120" height="60" as="geometry" />
        </mxCell>
        <mxCell id="30hyAyVBiut64HNMQ8CZ-116" value="Codigo" style="text;html=1;align=center;verticalAlign=middle;whiteSpace=wrap;rounded=0;" vertex="1" parent="1">
          <mxGeometry x="410" y="710" width="60" height="30" as="geometry" />
        </mxCell>
        <mxCell id="30hyAyVBiut64HNMQ8CZ-122" style="edgeStyle=orthogonalEdgeStyle;rounded=0;orthogonalLoop=1;jettySize=auto;html=1;endArrow=none;endFill=0;" edge="1" parent="1" source="30hyAyVBiut64HNMQ8CZ-119" target="30hyAyVBiut64HNMQ8CZ-120">
          <mxGeometry relative="1" as="geometry" />
        </mxCell>
        <mxCell id="30hyAyVBiut64HNMQ8CZ-123" value="n" style="edgeLabel;html=1;align=center;verticalAlign=middle;resizable=0;points=[];" vertex="1" connectable="0" parent="30hyAyVBiut64HNMQ8CZ-122">
          <mxGeometry x="-0.0857" y="-1" relative="1" as="geometry">
            <mxPoint y="-18" as="offset" />
          </mxGeometry>
        </mxCell>
        <mxCell id="30hyAyVBiut64HNMQ8CZ-119" value="Paciente" style="rounded=0;whiteSpace=wrap;html=1;" vertex="1" parent="1">
          <mxGeometry x="760" y="1049" width="120" height="60" as="geometry" />
        </mxCell>
        <mxCell id="30hyAyVBiut64HNMQ8CZ-127" style="edgeStyle=orthogonalEdgeStyle;rounded=0;orthogonalLoop=1;jettySize=auto;html=1;endArrow=oval;endFill=0;" edge="1" parent="1" source="30hyAyVBiut64HNMQ8CZ-120" target="30hyAyVBiut64HNMQ8CZ-125">
          <mxGeometry relative="1" as="geometry" />
        </mxCell>
        <mxCell id="30hyAyVBiut64HNMQ8CZ-128" style="edgeStyle=orthogonalEdgeStyle;rounded=0;orthogonalLoop=1;jettySize=auto;html=1;exitX=0.5;exitY=1;exitDx=0;exitDy=0;endArrow=circle;endFill=0;" edge="1" parent="1" source="30hyAyVBiut64HNMQ8CZ-120" target="30hyAyVBiut64HNMQ8CZ-126">
          <mxGeometry relative="1" as="geometry" />
        </mxCell>
        <mxCell id="30hyAyVBiut64HNMQ8CZ-120" value="Atende" style="shape=rhombus;perimeter=rhombusPerimeter;whiteSpace=wrap;html=1;align=center;" vertex="1" parent="1">
          <mxGeometry x="570" y="1049" width="120" height="60" as="geometry" />
        </mxCell>
        <mxCell id="30hyAyVBiut64HNMQ8CZ-125" value="Data" style="text;html=1;align=center;verticalAlign=middle;resizable=0;points=[];autosize=1;strokeColor=none;fillColor=none;" vertex="1" parent="1">
          <mxGeometry x="605" y="989" width="50" height="30" as="geometry" />
        </mxCell>
        <mxCell id="30hyAyVBiut64HNMQ8CZ-126" value="Hora" style="text;html=1;align=center;verticalAlign=middle;resizable=0;points=[];autosize=1;strokeColor=none;fillColor=none;" vertex="1" parent="1">
          <mxGeometry x="605" y="1139" width="50" height="30" as="geometry" />
        </mxCell>
        <mxCell id="30hyAyVBiut64HNMQ8CZ-129" value="Ex03" style="text;strokeColor=none;fillColor=none;html=1;fontSize=24;fontStyle=1;verticalAlign=middle;align=center;" vertex="1" parent="1">
          <mxGeometry y="1280" width="100" height="40" as="geometry" />
        </mxCell>
        <mxCell id="30hyAyVBiut64HNMQ8CZ-137" style="edgeStyle=orthogonalEdgeStyle;rounded=0;orthogonalLoop=1;jettySize=auto;html=1;exitX=1;exitY=0;exitDx=0;exitDy=0;endArrow=oval;endFill=0;" edge="1" parent="1" source="30hyAyVBiut64HNMQ8CZ-131" target="30hyAyVBiut64HNMQ8CZ-136">
          <mxGeometry relative="1" as="geometry" />
        </mxCell>
        <mxCell id="30hyAyVBiut64HNMQ8CZ-138" style="edgeStyle=orthogonalEdgeStyle;rounded=0;orthogonalLoop=1;jettySize=auto;html=1;endArrow=oval;endFill=1;" edge="1" parent="1" source="30hyAyVBiut64HNMQ8CZ-131" target="30hyAyVBiut64HNMQ8CZ-133">
          <mxGeometry relative="1" as="geometry" />
        </mxCell>
        <mxCell id="30hyAyVBiut64HNMQ8CZ-139" style="edgeStyle=orthogonalEdgeStyle;rounded=0;orthogonalLoop=1;jettySize=auto;html=1;exitX=0;exitY=0;exitDx=0;exitDy=0;endArrow=oval;endFill=0;" edge="1" parent="1" source="30hyAyVBiut64HNMQ8CZ-131" target="30hyAyVBiut64HNMQ8CZ-132">
          <mxGeometry relative="1" as="geometry" />
        </mxCell>
        <mxCell id="30hyAyVBiut64HNMQ8CZ-140" style="edgeStyle=orthogonalEdgeStyle;rounded=0;orthogonalLoop=1;jettySize=auto;html=1;exitX=0.25;exitY=1;exitDx=0;exitDy=0;endArrow=oval;endFill=0;" edge="1" parent="1" source="30hyAyVBiut64HNMQ8CZ-131" target="30hyAyVBiut64HNMQ8CZ-135">
          <mxGeometry relative="1" as="geometry" />
        </mxCell>
        <mxCell id="30hyAyVBiut64HNMQ8CZ-141" style="edgeStyle=orthogonalEdgeStyle;rounded=0;orthogonalLoop=1;jettySize=auto;html=1;exitX=0.75;exitY=1;exitDx=0;exitDy=0;endArrow=oval;endFill=0;" edge="1" parent="1" source="30hyAyVBiut64HNMQ8CZ-131" target="30hyAyVBiut64HNMQ8CZ-134">
          <mxGeometry relative="1" as="geometry" />
        </mxCell>
        <mxCell id="30hyAyVBiut64HNMQ8CZ-131" value="Cliente" style="rounded=0;whiteSpace=wrap;html=1;" vertex="1" parent="1">
          <mxGeometry x="30" y="1390.87" width="120" height="60" as="geometry" />
        </mxCell>
        <mxCell id="30hyAyVBiut64HNMQ8CZ-132" value="Nome" style="text;html=1;align=center;verticalAlign=middle;resizable=0;points=[];autosize=1;strokeColor=none;fillColor=none;" vertex="1" parent="1">
          <mxGeometry y="1320.87" width="60" height="30" as="geometry" />
        </mxCell>
        <mxCell id="30hyAyVBiut64HNMQ8CZ-133" value="CPF" style="text;html=1;align=center;verticalAlign=middle;resizable=0;points=[];autosize=1;strokeColor=none;fillColor=none;" vertex="1" parent="1">
          <mxGeometry x="65" y="1320.87" width="50" height="30" as="geometry" />
        </mxCell>
        <mxCell id="30hyAyVBiut64HNMQ8CZ-134" value="RG" style="text;html=1;align=center;verticalAlign=middle;resizable=0;points=[];autosize=1;strokeColor=none;fillColor=none;" vertex="1" parent="1">
          <mxGeometry x="100" y="1494.37" width="40" height="30" as="geometry" />
        </mxCell>
        <mxCell id="30hyAyVBiut64HNMQ8CZ-135" value="Endereço" style="text;html=1;align=center;verticalAlign=middle;resizable=0;points=[];autosize=1;strokeColor=none;fillColor=none;" vertex="1" parent="1">
          <mxGeometry x="25" y="1494.37" width="70" height="30" as="geometry" />
        </mxCell>
        <mxCell id="30hyAyVBiut64HNMQ8CZ-136" value="telefone" style="text;html=1;align=center;verticalAlign=middle;resizable=0;points=[];autosize=1;strokeColor=none;fillColor=none;" vertex="1" parent="1">
          <mxGeometry x="115" y="1320.87" width="70" height="30" as="geometry" />
        </mxCell>
        <mxCell id="30hyAyVBiut64HNMQ8CZ-144" style="edgeStyle=orthogonalEdgeStyle;rounded=0;orthogonalLoop=1;jettySize=auto;html=1;exitX=1;exitY=0;exitDx=0;exitDy=0;endArrow=oval;endFill=0;" edge="1" parent="1" source="30hyAyVBiut64HNMQ8CZ-149" target="30hyAyVBiut64HNMQ8CZ-154">
          <mxGeometry relative="1" as="geometry" />
        </mxCell>
        <mxCell id="30hyAyVBiut64HNMQ8CZ-145" style="edgeStyle=orthogonalEdgeStyle;rounded=0;orthogonalLoop=1;jettySize=auto;html=1;endArrow=oval;endFill=1;" edge="1" parent="1" source="30hyAyVBiut64HNMQ8CZ-149" target="30hyAyVBiut64HNMQ8CZ-151">
          <mxGeometry relative="1" as="geometry" />
        </mxCell>
        <mxCell id="30hyAyVBiut64HNMQ8CZ-146" style="edgeStyle=orthogonalEdgeStyle;rounded=0;orthogonalLoop=1;jettySize=auto;html=1;exitX=0;exitY=0;exitDx=0;exitDy=0;endArrow=oval;endFill=0;" edge="1" parent="1" source="30hyAyVBiut64HNMQ8CZ-149" target="30hyAyVBiut64HNMQ8CZ-150">
          <mxGeometry relative="1" as="geometry" />
        </mxCell>
        <mxCell id="30hyAyVBiut64HNMQ8CZ-147" style="edgeStyle=orthogonalEdgeStyle;rounded=0;orthogonalLoop=1;jettySize=auto;html=1;exitX=0.25;exitY=1;exitDx=0;exitDy=0;endArrow=oval;endFill=0;" edge="1" parent="1" source="30hyAyVBiut64HNMQ8CZ-149" target="30hyAyVBiut64HNMQ8CZ-153">
          <mxGeometry relative="1" as="geometry" />
        </mxCell>
        <mxCell id="30hyAyVBiut64HNMQ8CZ-148" style="edgeStyle=orthogonalEdgeStyle;rounded=0;orthogonalLoop=1;jettySize=auto;html=1;exitX=0.75;exitY=1;exitDx=0;exitDy=0;endArrow=oval;endFill=0;" edge="1" parent="1" source="30hyAyVBiut64HNMQ8CZ-149" target="30hyAyVBiut64HNMQ8CZ-152">
          <mxGeometry relative="1" as="geometry" />
        </mxCell>
        <mxCell id="30hyAyVBiut64HNMQ8CZ-159" style="edgeStyle=orthogonalEdgeStyle;rounded=0;orthogonalLoop=1;jettySize=auto;html=1;endArrow=none;endFill=0;" edge="1" parent="1" source="30hyAyVBiut64HNMQ8CZ-149" target="30hyAyVBiut64HNMQ8CZ-155">
          <mxGeometry relative="1" as="geometry" />
        </mxCell>
        <mxCell id="30hyAyVBiut64HNMQ8CZ-160" value="(1,n)" style="edgeLabel;html=1;align=center;verticalAlign=middle;resizable=0;points=[];fontStyle=1" vertex="1" connectable="0" parent="30hyAyVBiut64HNMQ8CZ-159">
          <mxGeometry y="5" relative="1" as="geometry">
            <mxPoint y="-25" as="offset" />
          </mxGeometry>
        </mxCell>
        <mxCell id="30hyAyVBiut64HNMQ8CZ-186" style="edgeStyle=orthogonalEdgeStyle;rounded=0;orthogonalLoop=1;jettySize=auto;html=1;endArrow=none;endFill=0;" edge="1" parent="1" source="30hyAyVBiut64HNMQ8CZ-149" target="30hyAyVBiut64HNMQ8CZ-184">
          <mxGeometry relative="1" as="geometry" />
        </mxCell>
        <mxCell id="30hyAyVBiut64HNMQ8CZ-189" value="(1,1)" style="edgeLabel;html=1;align=center;verticalAlign=middle;resizable=0;points=[];" vertex="1" connectable="0" parent="30hyAyVBiut64HNMQ8CZ-186">
          <mxGeometry x="-0.086" y="3" relative="1" as="geometry">
            <mxPoint x="3" y="-17" as="offset" />
          </mxGeometry>
        </mxCell>
        <mxCell id="30hyAyVBiut64HNMQ8CZ-149" value="Carro" style="rounded=0;whiteSpace=wrap;html=1;" vertex="1" parent="1">
          <mxGeometry x="400" y="1390.87" width="120" height="60" as="geometry" />
        </mxCell>
        <mxCell id="30hyAyVBiut64HNMQ8CZ-150" value="Reanavan" style="text;html=1;align=center;verticalAlign=middle;resizable=0;points=[];autosize=1;strokeColor=none;fillColor=none;" vertex="1" parent="1">
          <mxGeometry x="360" y="1320.87" width="80" height="30" as="geometry" />
        </mxCell>
        <mxCell id="30hyAyVBiut64HNMQ8CZ-151" value="Placa" style="text;html=1;align=center;verticalAlign=middle;resizable=0;points=[];autosize=1;strokeColor=none;fillColor=none;" vertex="1" parent="1">
          <mxGeometry x="435" y="1320.87" width="50" height="30" as="geometry" />
        </mxCell>
        <mxCell id="30hyAyVBiut64HNMQ8CZ-152" value="Ano" style="text;html=1;align=center;verticalAlign=middle;resizable=0;points=[];autosize=1;strokeColor=none;fillColor=none;" vertex="1" parent="1">
          <mxGeometry x="470" y="1494.37" width="40" height="30" as="geometry" />
        </mxCell>
        <mxCell id="30hyAyVBiut64HNMQ8CZ-153" value="Modelo" style="text;html=1;align=center;verticalAlign=middle;resizable=0;points=[];autosize=1;strokeColor=none;fillColor=none;" vertex="1" parent="1">
          <mxGeometry x="400" y="1494.37" width="60" height="30" as="geometry" />
        </mxCell>
        <mxCell id="30hyAyVBiut64HNMQ8CZ-154" value="Fabricante" style="text;html=1;align=center;verticalAlign=middle;resizable=0;points=[];autosize=1;strokeColor=none;fillColor=none;" vertex="1" parent="1">
          <mxGeometry x="480" y="1320.87" width="80" height="30" as="geometry" />
        </mxCell>
        <mxCell id="30hyAyVBiut64HNMQ8CZ-155" value="Possui" style="shape=rhombus;perimeter=rhombusPerimeter;whiteSpace=wrap;html=1;align=center;fontStyle=1" vertex="1" parent="1">
          <mxGeometry x="210" y="1390.87" width="120" height="60" as="geometry" />
        </mxCell>
        <mxCell id="30hyAyVBiut64HNMQ8CZ-156" style="edgeStyle=orthogonalEdgeStyle;rounded=0;orthogonalLoop=1;jettySize=auto;html=1;endArrow=none;endFill=0;" edge="1" parent="1" source="30hyAyVBiut64HNMQ8CZ-131" target="30hyAyVBiut64HNMQ8CZ-155">
          <mxGeometry relative="1" as="geometry" />
        </mxCell>
        <mxCell id="30hyAyVBiut64HNMQ8CZ-161" value="(1,1)" style="edgeLabel;html=1;align=center;verticalAlign=middle;resizable=0;points=[];" vertex="1" connectable="0" parent="30hyAyVBiut64HNMQ8CZ-156">
          <mxGeometry x="0.0857" y="-2" relative="1" as="geometry">
            <mxPoint x="-3" y="-22" as="offset" />
          </mxGeometry>
        </mxCell>
        <mxCell id="30hyAyVBiut64HNMQ8CZ-171" style="edgeStyle=orthogonalEdgeStyle;rounded=0;orthogonalLoop=1;jettySize=auto;html=1;exitX=1;exitY=0;exitDx=0;exitDy=0;endArrow=oval;endFill=0;" edge="1" parent="1" source="30hyAyVBiut64HNMQ8CZ-177" target="30hyAyVBiut64HNMQ8CZ-182">
          <mxGeometry relative="1" as="geometry" />
        </mxCell>
        <mxCell id="30hyAyVBiut64HNMQ8CZ-172" style="edgeStyle=orthogonalEdgeStyle;rounded=0;orthogonalLoop=1;jettySize=auto;html=1;endArrow=oval;endFill=1;" edge="1" parent="1" source="30hyAyVBiut64HNMQ8CZ-177" target="30hyAyVBiut64HNMQ8CZ-179">
          <mxGeometry relative="1" as="geometry" />
        </mxCell>
        <mxCell id="30hyAyVBiut64HNMQ8CZ-173" style="edgeStyle=orthogonalEdgeStyle;rounded=0;orthogonalLoop=1;jettySize=auto;html=1;exitX=0;exitY=0;exitDx=0;exitDy=0;endArrow=oval;endFill=0;" edge="1" parent="1" source="30hyAyVBiut64HNMQ8CZ-177" target="30hyAyVBiut64HNMQ8CZ-178">
          <mxGeometry relative="1" as="geometry" />
        </mxCell>
        <mxCell id="30hyAyVBiut64HNMQ8CZ-174" style="edgeStyle=orthogonalEdgeStyle;rounded=0;orthogonalLoop=1;jettySize=auto;html=1;exitX=0.25;exitY=1;exitDx=0;exitDy=0;endArrow=oval;endFill=0;" edge="1" parent="1" source="30hyAyVBiut64HNMQ8CZ-177" target="30hyAyVBiut64HNMQ8CZ-181">
          <mxGeometry relative="1" as="geometry">
            <Array as="points">
              <mxPoint x="855" y="1449.75" />
            </Array>
          </mxGeometry>
        </mxCell>
        <mxCell id="30hyAyVBiut64HNMQ8CZ-185" style="edgeStyle=orthogonalEdgeStyle;rounded=0;orthogonalLoop=1;jettySize=auto;html=1;endArrow=none;endFill=0;" edge="1" parent="1" source="30hyAyVBiut64HNMQ8CZ-177" target="30hyAyVBiut64HNMQ8CZ-184">
          <mxGeometry relative="1" as="geometry" />
        </mxCell>
        <mxCell id="30hyAyVBiut64HNMQ8CZ-187" value="(0,n)" style="edgeLabel;html=1;align=center;verticalAlign=middle;resizable=0;points=[];" vertex="1" connectable="0" parent="30hyAyVBiut64HNMQ8CZ-185">
          <mxGeometry x="-0.2" y="-2" relative="1" as="geometry">
            <mxPoint x="-5" y="-17" as="offset" />
          </mxGeometry>
        </mxCell>
        <mxCell id="30hyAyVBiut64HNMQ8CZ-177" value="Ocorrências" style="rounded=0;whiteSpace=wrap;html=1;" vertex="1" parent="1">
          <mxGeometry x="795" y="1390" width="120" height="60" as="geometry" />
        </mxCell>
        <mxCell id="30hyAyVBiut64HNMQ8CZ-178" value="Numero" style="text;html=1;align=center;verticalAlign=middle;resizable=0;points=[];autosize=1;strokeColor=none;fillColor=none;" vertex="1" parent="1">
          <mxGeometry x="760" y="1320" width="70" height="30" as="geometry" />
        </mxCell>
        <mxCell id="30hyAyVBiut64HNMQ8CZ-179" value="Data" style="text;html=1;align=center;verticalAlign=middle;resizable=0;points=[];autosize=1;strokeColor=none;fillColor=none;" vertex="1" parent="1">
          <mxGeometry x="830" y="1320" width="50" height="30" as="geometry" />
        </mxCell>
        <mxCell id="30hyAyVBiut64HNMQ8CZ-181" value="Descrição" style="text;html=1;align=center;verticalAlign=middle;resizable=0;points=[];autosize=1;strokeColor=none;fillColor=none;" vertex="1" parent="1">
          <mxGeometry x="815" y="1491.75" width="80" height="30" as="geometry" />
        </mxCell>
        <mxCell id="30hyAyVBiut64HNMQ8CZ-182" value="Local" style="text;html=1;align=center;verticalAlign=middle;resizable=0;points=[];autosize=1;strokeColor=none;fillColor=none;" vertex="1" parent="1">
          <mxGeometry x="890" y="1320" width="50" height="30" as="geometry" />
        </mxCell>
        <mxCell id="30hyAyVBiut64HNMQ8CZ-184" value="Tem" style="shape=rhombus;perimeter=rhombusPerimeter;whiteSpace=wrap;html=1;align=center;" vertex="1" parent="1">
          <mxGeometry x="600" y="1390" width="120" height="60" as="geometry" />
        </mxCell>
        <mxCell id="30hyAyVBiut64HNMQ8CZ-193" style="edgeStyle=orthogonalEdgeStyle;rounded=0;orthogonalLoop=1;jettySize=auto;html=1;exitX=0;exitY=0;exitDx=0;exitDy=0;endArrow=oval;endFill=0;" edge="1" parent="1" source="30hyAyVBiut64HNMQ8CZ-196" target="30hyAyVBiut64HNMQ8CZ-197">
          <mxGeometry relative="1" as="geometry" />
        </mxCell>
        <mxCell id="30hyAyVBiut64HNMQ8CZ-194" style="edgeStyle=orthogonalEdgeStyle;rounded=0;orthogonalLoop=1;jettySize=auto;html=1;exitX=0.25;exitY=1;exitDx=0;exitDy=0;endArrow=oval;endFill=0;" edge="1" parent="1" source="30hyAyVBiut64HNMQ8CZ-196" target="30hyAyVBiut64HNMQ8CZ-200">
          <mxGeometry relative="1" as="geometry">
            <Array as="points">
              <mxPoint x="485" y="1781" />
            </Array>
          </mxGeometry>
        </mxCell>
        <mxCell id="30hyAyVBiut64HNMQ8CZ-203" style="edgeStyle=orthogonalEdgeStyle;rounded=0;orthogonalLoop=1;jettySize=auto;html=1;exitX=0.75;exitY=0;exitDx=0;exitDy=0;endArrow=oval;endFill=1;" edge="1" parent="1" source="30hyAyVBiut64HNMQ8CZ-196" target="30hyAyVBiut64HNMQ8CZ-198">
          <mxGeometry relative="1" as="geometry">
            <Array as="points">
              <mxPoint x="550" y="1721" />
            </Array>
          </mxGeometry>
        </mxCell>
        <mxCell id="30hyAyVBiut64HNMQ8CZ-222" style="edgeStyle=orthogonalEdgeStyle;rounded=0;orthogonalLoop=1;jettySize=auto;html=1;endArrow=none;endFill=0;" edge="1" parent="1" source="30hyAyVBiut64HNMQ8CZ-196" target="30hyAyVBiut64HNMQ8CZ-220">
          <mxGeometry relative="1" as="geometry" />
        </mxCell>
        <mxCell id="30hyAyVBiut64HNMQ8CZ-224" value="(1,n)" style="edgeLabel;html=1;align=center;verticalAlign=middle;resizable=0;points=[];" vertex="1" connectable="0" parent="30hyAyVBiut64HNMQ8CZ-222">
          <mxGeometry x="0.04" y="2" relative="1" as="geometry">
            <mxPoint x="-4" y="-20" as="offset" />
          </mxGeometry>
        </mxCell>
        <mxCell id="30hyAyVBiut64HNMQ8CZ-251" style="edgeStyle=orthogonalEdgeStyle;rounded=0;orthogonalLoop=1;jettySize=auto;html=1;endArrow=none;endFill=0;" edge="1" parent="1" source="30hyAyVBiut64HNMQ8CZ-196" target="30hyAyVBiut64HNMQ8CZ-249">
          <mxGeometry relative="1" as="geometry" />
        </mxCell>
        <mxCell id="30hyAyVBiut64HNMQ8CZ-252" value="(1,n)" style="edgeLabel;html=1;align=center;verticalAlign=middle;resizable=0;points=[];" vertex="1" connectable="0" parent="30hyAyVBiut64HNMQ8CZ-251">
          <mxGeometry x="-0.075" y="-4" relative="1" as="geometry">
            <mxPoint x="-13" y="-17" as="offset" />
          </mxGeometry>
        </mxCell>
        <mxCell id="30hyAyVBiut64HNMQ8CZ-196" value="Voo" style="rounded=0;whiteSpace=wrap;html=1;" vertex="1" parent="1">
          <mxGeometry x="430" y="1721" width="120" height="60" as="geometry" />
        </mxCell>
        <mxCell id="30hyAyVBiut64HNMQ8CZ-197" value="Nome" style="text;html=1;align=center;verticalAlign=middle;resizable=0;points=[];autosize=1;strokeColor=none;fillColor=none;" vertex="1" parent="1">
          <mxGeometry x="400" y="1651" width="60" height="30" as="geometry" />
        </mxCell>
        <mxCell id="30hyAyVBiut64HNMQ8CZ-198" value="Numero_Regisdtro" style="text;html=1;align=center;verticalAlign=middle;resizable=0;points=[];autosize=1;strokeColor=none;fillColor=none;" vertex="1" parent="1">
          <mxGeometry x="490" y="1651" width="120" height="30" as="geometry" />
        </mxCell>
        <mxCell id="30hyAyVBiut64HNMQ8CZ-200" value="Data_Validade_Registro" style="text;html=1;align=center;verticalAlign=middle;resizable=0;points=[];autosize=1;strokeColor=none;fillColor=none;" vertex="1" parent="1">
          <mxGeometry x="410" y="1824.5" width="150" height="30" as="geometry" />
        </mxCell>
        <mxCell id="30hyAyVBiut64HNMQ8CZ-204" style="edgeStyle=orthogonalEdgeStyle;rounded=0;orthogonalLoop=1;jettySize=auto;html=1;exitX=1;exitY=0;exitDx=0;exitDy=0;endArrow=oval;endFill=1;" edge="1" parent="1" source="30hyAyVBiut64HNMQ8CZ-209" target="30hyAyVBiut64HNMQ8CZ-214">
          <mxGeometry relative="1" as="geometry">
            <Array as="points">
              <mxPoint x="925" y="1720.75" />
            </Array>
          </mxGeometry>
        </mxCell>
        <mxCell id="30hyAyVBiut64HNMQ8CZ-205" style="edgeStyle=orthogonalEdgeStyle;rounded=0;orthogonalLoop=1;jettySize=auto;html=1;endArrow=oval;endFill=0;" edge="1" parent="1" source="30hyAyVBiut64HNMQ8CZ-209" target="30hyAyVBiut64HNMQ8CZ-211">
          <mxGeometry relative="1" as="geometry" />
        </mxCell>
        <mxCell id="30hyAyVBiut64HNMQ8CZ-206" style="edgeStyle=orthogonalEdgeStyle;rounded=0;orthogonalLoop=1;jettySize=auto;html=1;exitX=0;exitY=0;exitDx=0;exitDy=0;endArrow=oval;endFill=0;" edge="1" parent="1" source="30hyAyVBiut64HNMQ8CZ-209" target="30hyAyVBiut64HNMQ8CZ-210">
          <mxGeometry relative="1" as="geometry" />
        </mxCell>
        <mxCell id="30hyAyVBiut64HNMQ8CZ-207" style="edgeStyle=orthogonalEdgeStyle;rounded=0;orthogonalLoop=1;jettySize=auto;html=1;exitX=0.25;exitY=1;exitDx=0;exitDy=0;endArrow=oval;endFill=0;" edge="1" parent="1" source="30hyAyVBiut64HNMQ8CZ-209" target="30hyAyVBiut64HNMQ8CZ-213">
          <mxGeometry relative="1" as="geometry">
            <Array as="points">
              <mxPoint x="810" y="1780.75" />
            </Array>
          </mxGeometry>
        </mxCell>
        <mxCell id="30hyAyVBiut64HNMQ8CZ-208" style="edgeStyle=orthogonalEdgeStyle;rounded=0;orthogonalLoop=1;jettySize=auto;html=1;exitX=0.75;exitY=1;exitDx=0;exitDy=0;endArrow=oval;endFill=0;" edge="1" parent="1" source="30hyAyVBiut64HNMQ8CZ-209" target="30hyAyVBiut64HNMQ8CZ-212">
          <mxGeometry relative="1" as="geometry">
            <Array as="points">
              <mxPoint x="905" y="1780.75" />
            </Array>
          </mxGeometry>
        </mxCell>
        <mxCell id="30hyAyVBiut64HNMQ8CZ-217" style="edgeStyle=orthogonalEdgeStyle;rounded=0;orthogonalLoop=1;jettySize=auto;html=1;endArrow=oval;endFill=0;" edge="1" parent="1" source="30hyAyVBiut64HNMQ8CZ-209" target="30hyAyVBiut64HNMQ8CZ-216">
          <mxGeometry relative="1" as="geometry">
            <Array as="points">
              <mxPoint x="865" y="1790.75" />
              <mxPoint x="865" y="1790.75" />
            </Array>
          </mxGeometry>
        </mxCell>
        <mxCell id="30hyAyVBiut64HNMQ8CZ-219" style="edgeStyle=orthogonalEdgeStyle;rounded=0;orthogonalLoop=1;jettySize=auto;html=1;exitX=1;exitY=1;exitDx=0;exitDy=0;endArrow=oval;endFill=0;" edge="1" parent="1" source="30hyAyVBiut64HNMQ8CZ-209" target="30hyAyVBiut64HNMQ8CZ-218">
          <mxGeometry relative="1" as="geometry">
            <Array as="points">
              <mxPoint x="930" y="1820.75" />
              <mxPoint x="930" y="1820.75" />
            </Array>
          </mxGeometry>
        </mxCell>
        <mxCell id="30hyAyVBiut64HNMQ8CZ-221" style="edgeStyle=orthogonalEdgeStyle;rounded=0;orthogonalLoop=1;jettySize=auto;html=1;endArrow=none;endFill=0;" edge="1" parent="1" source="30hyAyVBiut64HNMQ8CZ-209" target="30hyAyVBiut64HNMQ8CZ-220">
          <mxGeometry relative="1" as="geometry" />
        </mxCell>
        <mxCell id="30hyAyVBiut64HNMQ8CZ-223" value="(1,1)" style="edgeLabel;html=1;align=center;verticalAlign=middle;resizable=0;points=[];" vertex="1" connectable="0" parent="30hyAyVBiut64HNMQ8CZ-221">
          <mxGeometry x="0.1077" y="-1" relative="1" as="geometry">
            <mxPoint x="1" y="-21" as="offset" />
          </mxGeometry>
        </mxCell>
        <mxCell id="30hyAyVBiut64HNMQ8CZ-209" value="Piloto" style="rounded=0;whiteSpace=wrap;html=1;" vertex="1" parent="1">
          <mxGeometry x="810" y="1721" width="120" height="60" as="geometry" />
        </mxCell>
        <mxCell id="30hyAyVBiut64HNMQ8CZ-210" value="Numero_Voo" style="text;html=1;align=center;verticalAlign=middle;resizable=0;points=[];autosize=1;strokeColor=none;fillColor=none;" vertex="1" parent="1">
          <mxGeometry x="765" y="1651" width="90" height="30" as="geometry" />
        </mxCell>
        <mxCell id="30hyAyVBiut64HNMQ8CZ-211" value="Nome" style="text;html=1;align=center;verticalAlign=middle;resizable=0;points=[];autosize=1;strokeColor=none;fillColor=none;" vertex="1" parent="1">
          <mxGeometry x="840" y="1651" width="60" height="30" as="geometry" />
        </mxCell>
        <mxCell id="30hyAyVBiut64HNMQ8CZ-212" value="Local" style="text;html=1;align=center;verticalAlign=middle;resizable=0;points=[];autosize=1;strokeColor=none;fillColor=none;" vertex="1" parent="1">
          <mxGeometry x="875" y="1826.25" width="50" height="30" as="geometry" />
        </mxCell>
        <mxCell id="30hyAyVBiut64HNMQ8CZ-213" value="Horario" style="text;html=1;align=center;verticalAlign=middle;resizable=0;points=[];autosize=1;strokeColor=none;fillColor=none;" vertex="1" parent="1">
          <mxGeometry x="765" y="1826.25" width="60" height="30" as="geometry" />
        </mxCell>
        <mxCell id="30hyAyVBiut64HNMQ8CZ-214" value="Identidade" style="text;html=1;align=center;verticalAlign=middle;resizable=0;points=[];autosize=1;strokeColor=none;fillColor=none;" vertex="1" parent="1">
          <mxGeometry x="895" y="1652.75" width="80" height="30" as="geometry" />
        </mxCell>
        <mxCell id="30hyAyVBiut64HNMQ8CZ-216" value="Telefone" style="text;html=1;align=center;verticalAlign=middle;resizable=0;points=[];autosize=1;strokeColor=none;fillColor=none;" vertex="1" parent="1">
          <mxGeometry x="815" y="1826.25" width="70" height="30" as="geometry" />
        </mxCell>
        <mxCell id="30hyAyVBiut64HNMQ8CZ-218" value="endereço" style="text;html=1;align=center;verticalAlign=middle;resizable=0;points=[];autosize=1;strokeColor=none;fillColor=none;" vertex="1" parent="1">
          <mxGeometry x="915" y="1826.25" width="70" height="30" as="geometry" />
        </mxCell>
        <mxCell id="30hyAyVBiut64HNMQ8CZ-220" value="faz" style="shape=rhombus;perimeter=rhombusPerimeter;whiteSpace=wrap;html=1;align=center;fontStyle=1" vertex="1" parent="1">
          <mxGeometry x="625" y="1721" width="120" height="60" as="geometry" />
        </mxCell>
        <mxCell id="30hyAyVBiut64HNMQ8CZ-244" style="edgeStyle=orthogonalEdgeStyle;rounded=0;orthogonalLoop=1;jettySize=auto;html=1;exitX=1;exitY=0;exitDx=0;exitDy=0;endArrow=oval;endFill=0;" edge="1" parent="1" source="30hyAyVBiut64HNMQ8CZ-246" target="30hyAyVBiut64HNMQ8CZ-248">
          <mxGeometry relative="1" as="geometry">
            <Array as="points">
              <mxPoint x="150" y="1720.75" />
            </Array>
          </mxGeometry>
        </mxCell>
        <mxCell id="30hyAyVBiut64HNMQ8CZ-245" style="edgeStyle=orthogonalEdgeStyle;rounded=0;orthogonalLoop=1;jettySize=auto;html=1;exitX=0;exitY=0;exitDx=0;exitDy=0;endArrow=oval;endFill=1;" edge="1" parent="1" source="30hyAyVBiut64HNMQ8CZ-246" target="30hyAyVBiut64HNMQ8CZ-247">
          <mxGeometry relative="1" as="geometry" />
        </mxCell>
        <mxCell id="30hyAyVBiut64HNMQ8CZ-250" style="edgeStyle=orthogonalEdgeStyle;rounded=0;orthogonalLoop=1;jettySize=auto;html=1;endArrow=none;endFill=0;" edge="1" parent="1" source="30hyAyVBiut64HNMQ8CZ-246" target="30hyAyVBiut64HNMQ8CZ-249">
          <mxGeometry relative="1" as="geometry" />
        </mxCell>
        <mxCell id="30hyAyVBiut64HNMQ8CZ-254" value="(1,n)" style="edgeLabel;html=1;align=center;verticalAlign=middle;resizable=0;points=[];" vertex="1" connectable="0" parent="30hyAyVBiut64HNMQ8CZ-250">
          <mxGeometry x="-0.0933" y="-2" relative="1" as="geometry">
            <mxPoint x="1" y="-23" as="offset" />
          </mxGeometry>
        </mxCell>
        <mxCell id="30hyAyVBiut64HNMQ8CZ-246" value="Cliente" style="rounded=0;whiteSpace=wrap;html=1;" vertex="1" parent="1">
          <mxGeometry x="35" y="1721" width="120" height="60" as="geometry" />
        </mxCell>
        <mxCell id="30hyAyVBiut64HNMQ8CZ-247" value="Poltrona" style="text;html=1;align=center;verticalAlign=middle;resizable=0;points=[];autosize=1;strokeColor=none;fillColor=none;" vertex="1" parent="1">
          <mxGeometry y="1651" width="70" height="30" as="geometry" />
        </mxCell>
        <mxCell id="30hyAyVBiut64HNMQ8CZ-248" value="Bagagem" style="text;html=1;align=center;verticalAlign=middle;resizable=0;points=[];autosize=1;strokeColor=none;fillColor=none;" vertex="1" parent="1">
          <mxGeometry x="125" y="1652.75" width="70" height="30" as="geometry" />
        </mxCell>
        <mxCell id="30hyAyVBiut64HNMQ8CZ-249" value="voa" style="shape=rhombus;perimeter=rhombusPerimeter;whiteSpace=wrap;html=1;align=center;fontStyle=1" vertex="1" parent="1">
          <mxGeometry x="230" y="1721" width="120" height="60" as="geometry" />
        </mxCell>
        <mxCell id="30hyAyVBiut64HNMQ8CZ-255" value="Ex04" style="text;strokeColor=none;fillColor=none;html=1;fontSize=24;fontStyle=1;verticalAlign=middle;align=center;" vertex="1" parent="1">
          <mxGeometry y="1611" width="100" height="40" as="geometry" />
        </mxCell>
        <mxCell id="30hyAyVBiut64HNMQ8CZ-256" style="edgeStyle=orthogonalEdgeStyle;rounded=0;orthogonalLoop=1;jettySize=auto;html=1;exitX=1;exitY=0;exitDx=0;exitDy=0;endArrow=oval;endFill=0;" edge="1" parent="1" source="30hyAyVBiut64HNMQ8CZ-264" target="30hyAyVBiut64HNMQ8CZ-269">
          <mxGeometry relative="1" as="geometry">
            <Array as="points">
              <mxPoint x="235" y="2049.75" />
            </Array>
          </mxGeometry>
        </mxCell>
        <mxCell id="30hyAyVBiut64HNMQ8CZ-257" style="edgeStyle=orthogonalEdgeStyle;rounded=0;orthogonalLoop=1;jettySize=auto;html=1;endArrow=oval;endFill=0;" edge="1" parent="1" source="30hyAyVBiut64HNMQ8CZ-264" target="30hyAyVBiut64HNMQ8CZ-266">
          <mxGeometry relative="1" as="geometry" />
        </mxCell>
        <mxCell id="30hyAyVBiut64HNMQ8CZ-258" style="edgeStyle=orthogonalEdgeStyle;rounded=0;orthogonalLoop=1;jettySize=auto;html=1;exitX=0;exitY=0;exitDx=0;exitDy=0;endArrow=oval;endFill=0;" edge="1" parent="1" source="30hyAyVBiut64HNMQ8CZ-264" target="30hyAyVBiut64HNMQ8CZ-265">
          <mxGeometry relative="1" as="geometry" />
        </mxCell>
        <mxCell id="30hyAyVBiut64HNMQ8CZ-259" style="edgeStyle=orthogonalEdgeStyle;rounded=0;orthogonalLoop=1;jettySize=auto;html=1;exitX=0.25;exitY=1;exitDx=0;exitDy=0;endArrow=oval;endFill=0;" edge="1" parent="1" source="30hyAyVBiut64HNMQ8CZ-264" target="30hyAyVBiut64HNMQ8CZ-268">
          <mxGeometry relative="1" as="geometry">
            <Array as="points">
              <mxPoint x="120" y="2109.75" />
            </Array>
          </mxGeometry>
        </mxCell>
        <mxCell id="30hyAyVBiut64HNMQ8CZ-261" style="edgeStyle=orthogonalEdgeStyle;rounded=0;orthogonalLoop=1;jettySize=auto;html=1;endArrow=oval;endFill=0;" edge="1" parent="1">
          <mxGeometry relative="1" as="geometry">
            <Array as="points">
              <mxPoint x="125" y="2110" />
              <mxPoint x="125" y="2170" />
            </Array>
            <mxPoint x="135" y="2110" as="sourcePoint" />
            <mxPoint x="115" y="2170.3" as="targetPoint" />
          </mxGeometry>
        </mxCell>
        <mxCell id="30hyAyVBiut64HNMQ8CZ-262" style="edgeStyle=orthogonalEdgeStyle;rounded=0;orthogonalLoop=1;jettySize=auto;html=1;exitX=1;exitY=1;exitDx=0;exitDy=0;endArrow=oval;endFill=0;" edge="1" parent="1" source="30hyAyVBiut64HNMQ8CZ-264" target="30hyAyVBiut64HNMQ8CZ-271">
          <mxGeometry relative="1" as="geometry">
            <Array as="points">
              <mxPoint x="240" y="2149.75" />
              <mxPoint x="240" y="2149.75" />
            </Array>
          </mxGeometry>
        </mxCell>
        <mxCell id="30hyAyVBiut64HNMQ8CZ-288" style="edgeStyle=orthogonalEdgeStyle;rounded=0;orthogonalLoop=1;jettySize=auto;html=1;endArrow=none;endFill=0;" edge="1" parent="1" source="30hyAyVBiut64HNMQ8CZ-264" target="30hyAyVBiut64HNMQ8CZ-286">
          <mxGeometry relative="1" as="geometry">
            <Array as="points">
              <mxPoint x="285" y="2080" />
              <mxPoint x="285" y="2080" />
            </Array>
          </mxGeometry>
        </mxCell>
        <mxCell id="30hyAyVBiut64HNMQ8CZ-289" value="(0,n)" style="edgeLabel;html=1;align=center;verticalAlign=middle;resizable=0;points=[];" vertex="1" connectable="0" parent="30hyAyVBiut64HNMQ8CZ-288">
          <mxGeometry x="-0.0947" y="4" relative="1" as="geometry">
            <mxPoint x="2" y="-16" as="offset" />
          </mxGeometry>
        </mxCell>
        <mxCell id="30hyAyVBiut64HNMQ8CZ-302" style="edgeStyle=orthogonalEdgeStyle;rounded=0;orthogonalLoop=1;jettySize=auto;html=1;endArrow=none;endFill=0;" edge="1" parent="1" source="30hyAyVBiut64HNMQ8CZ-264" target="30hyAyVBiut64HNMQ8CZ-292">
          <mxGeometry relative="1" as="geometry" />
        </mxCell>
        <mxCell id="30hyAyVBiut64HNMQ8CZ-264" value="Cliente" style="rounded=0;whiteSpace=wrap;html=1;" vertex="1" parent="1">
          <mxGeometry x="120" y="2050" width="120" height="60" as="geometry" />
        </mxCell>
        <mxCell id="30hyAyVBiut64HNMQ8CZ-265" value="Endereço" style="text;html=1;align=center;verticalAlign=middle;resizable=0;points=[];autosize=1;strokeColor=none;fillColor=none;" vertex="1" parent="1">
          <mxGeometry x="85" y="1980" width="70" height="30" as="geometry" />
        </mxCell>
        <mxCell id="30hyAyVBiut64HNMQ8CZ-266" value="Codigo" style="text;html=1;align=center;verticalAlign=middle;resizable=0;points=[];autosize=1;strokeColor=none;fillColor=none;" vertex="1" parent="1">
          <mxGeometry x="150" y="1980" width="60" height="30" as="geometry" />
        </mxCell>
        <mxCell id="30hyAyVBiut64HNMQ8CZ-268" value="Desconto" style="text;html=1;align=center;verticalAlign=middle;resizable=0;points=[];autosize=1;strokeColor=none;fillColor=none;" vertex="1" parent="1">
          <mxGeometry x="5" y="2065" width="70" height="30" as="geometry" />
        </mxCell>
        <mxCell id="30hyAyVBiut64HNMQ8CZ-269" value="Nome" style="text;html=1;align=center;verticalAlign=middle;resizable=0;points=[];autosize=1;strokeColor=none;fillColor=none;" vertex="1" parent="1">
          <mxGeometry x="215" y="1981.75" width="60" height="30" as="geometry" />
        </mxCell>
        <mxCell id="30hyAyVBiut64HNMQ8CZ-270" value="Telefone" style="text;html=1;align=center;verticalAlign=middle;resizable=0;points=[];autosize=1;strokeColor=none;fillColor=none;" vertex="1" parent="1">
          <mxGeometry x="85" y="2155.25" width="70" height="30" as="geometry" />
        </mxCell>
        <mxCell id="30hyAyVBiut64HNMQ8CZ-271" value="endereço_Entrega" style="text;html=1;align=center;verticalAlign=middle;resizable=0;points=[];autosize=1;strokeColor=none;fillColor=none;" vertex="1" parent="1">
          <mxGeometry x="215" y="2155.25" width="120" height="30" as="geometry" />
        </mxCell>
        <mxCell id="30hyAyVBiut64HNMQ8CZ-273" style="edgeStyle=orthogonalEdgeStyle;rounded=0;orthogonalLoop=1;jettySize=auto;html=1;exitX=1;exitY=0;exitDx=0;exitDy=0;endArrow=oval;endFill=1;" edge="1" parent="1" source="30hyAyVBiut64HNMQ8CZ-279" target="30hyAyVBiut64HNMQ8CZ-283">
          <mxGeometry relative="1" as="geometry">
            <Array as="points">
              <mxPoint x="670" y="2049.75" />
            </Array>
          </mxGeometry>
        </mxCell>
        <mxCell id="30hyAyVBiut64HNMQ8CZ-274" style="edgeStyle=orthogonalEdgeStyle;rounded=0;orthogonalLoop=1;jettySize=auto;html=1;endArrow=oval;endFill=0;" edge="1" parent="1" source="30hyAyVBiut64HNMQ8CZ-279" target="30hyAyVBiut64HNMQ8CZ-281">
          <mxGeometry relative="1" as="geometry" />
        </mxCell>
        <mxCell id="30hyAyVBiut64HNMQ8CZ-275" style="edgeStyle=orthogonalEdgeStyle;rounded=0;orthogonalLoop=1;jettySize=auto;html=1;exitX=0;exitY=0;exitDx=0;exitDy=0;endArrow=oval;endFill=0;" edge="1" parent="1" source="30hyAyVBiut64HNMQ8CZ-279" target="30hyAyVBiut64HNMQ8CZ-280">
          <mxGeometry relative="1" as="geometry" />
        </mxCell>
        <mxCell id="30hyAyVBiut64HNMQ8CZ-276" style="edgeStyle=orthogonalEdgeStyle;rounded=0;orthogonalLoop=1;jettySize=auto;html=1;exitX=0.25;exitY=1;exitDx=0;exitDy=0;endArrow=oval;endFill=0;" edge="1" parent="1" source="30hyAyVBiut64HNMQ8CZ-279" target="30hyAyVBiut64HNMQ8CZ-282">
          <mxGeometry relative="1" as="geometry">
            <Array as="points">
              <mxPoint x="555" y="2109.75" />
            </Array>
          </mxGeometry>
        </mxCell>
        <mxCell id="30hyAyVBiut64HNMQ8CZ-278" style="edgeStyle=orthogonalEdgeStyle;rounded=0;orthogonalLoop=1;jettySize=auto;html=1;exitX=1;exitY=1;exitDx=0;exitDy=0;endArrow=oval;endFill=0;" edge="1" parent="1" source="30hyAyVBiut64HNMQ8CZ-279" target="30hyAyVBiut64HNMQ8CZ-285">
          <mxGeometry relative="1" as="geometry">
            <Array as="points">
              <mxPoint x="675" y="2149.75" />
              <mxPoint x="675" y="2149.75" />
            </Array>
          </mxGeometry>
        </mxCell>
        <mxCell id="30hyAyVBiut64HNMQ8CZ-287" style="edgeStyle=orthogonalEdgeStyle;rounded=0;orthogonalLoop=1;jettySize=auto;html=1;endArrow=none;endFill=0;" edge="1" parent="1" source="30hyAyVBiut64HNMQ8CZ-279" target="30hyAyVBiut64HNMQ8CZ-286">
          <mxGeometry relative="1" as="geometry">
            <mxPoint x="505" y="2080" as="targetPoint" />
          </mxGeometry>
        </mxCell>
        <mxCell id="30hyAyVBiut64HNMQ8CZ-290" value="(0,n)" style="edgeLabel;html=1;align=center;verticalAlign=middle;resizable=0;points=[];" vertex="1" connectable="0" parent="30hyAyVBiut64HNMQ8CZ-287">
          <mxGeometry y="-3" relative="1" as="geometry">
            <mxPoint y="-17" as="offset" />
          </mxGeometry>
        </mxCell>
        <mxCell id="30hyAyVBiut64HNMQ8CZ-279" value="Material" style="rounded=0;whiteSpace=wrap;html=1;" vertex="1" parent="1">
          <mxGeometry x="555" y="2050" width="120" height="60" as="geometry" />
        </mxCell>
        <mxCell id="30hyAyVBiut64HNMQ8CZ-280" value="&lt;div&gt;Descrição&lt;/div&gt;" style="text;html=1;align=center;verticalAlign=middle;resizable=0;points=[];autosize=1;strokeColor=none;fillColor=none;" vertex="1" parent="1">
          <mxGeometry x="515" y="1980" width="80" height="30" as="geometry" />
        </mxCell>
        <mxCell id="30hyAyVBiut64HNMQ8CZ-281" value="Codigo" style="text;html=1;align=center;verticalAlign=middle;resizable=0;points=[];autosize=1;strokeColor=none;fillColor=none;" vertex="1" parent="1">
          <mxGeometry x="585" y="1980" width="60" height="30" as="geometry" />
        </mxCell>
        <mxCell id="30hyAyVBiut64HNMQ8CZ-282" value="Quantidade" style="text;html=1;align=center;verticalAlign=middle;resizable=0;points=[];autosize=1;strokeColor=none;fillColor=none;" vertex="1" parent="1">
          <mxGeometry x="495" y="2155.25" width="90" height="30" as="geometry" />
        </mxCell>
        <mxCell id="30hyAyVBiut64HNMQ8CZ-283" value="Nome" style="text;html=1;align=center;verticalAlign=middle;resizable=0;points=[];autosize=1;strokeColor=none;fillColor=none;" vertex="1" parent="1">
          <mxGeometry x="650" y="1981.75" width="60" height="30" as="geometry" />
        </mxCell>
        <mxCell id="30hyAyVBiut64HNMQ8CZ-285" value="Preço" style="text;html=1;align=center;verticalAlign=middle;resizable=0;points=[];autosize=1;strokeColor=none;fillColor=none;" vertex="1" parent="1">
          <mxGeometry x="655" y="2155.25" width="50" height="30" as="geometry" />
        </mxCell>
        <mxCell id="30hyAyVBiut64HNMQ8CZ-286" value="Compra" style="shape=rhombus;perimeter=rhombusPerimeter;whiteSpace=wrap;html=1;align=center;fontStyle=1" vertex="1" parent="1">
          <mxGeometry x="335" y="2050" width="120" height="60" as="geometry" />
        </mxCell>
        <mxCell id="30hyAyVBiut64HNMQ8CZ-291" value="Ex05" style="text;strokeColor=none;fillColor=none;html=1;fontSize=24;fontStyle=1;verticalAlign=middle;align=center;" vertex="1" parent="1">
          <mxGeometry x="5" y="1940" width="100" height="40" as="geometry" />
        </mxCell>
        <mxCell id="30hyAyVBiut64HNMQ8CZ-292" value="" style="triangle;whiteSpace=wrap;html=1;direction=north;" vertex="1" parent="1">
          <mxGeometry x="140" y="2200" width="80" height="60" as="geometry" />
        </mxCell>
        <mxCell id="30hyAyVBiut64HNMQ8CZ-293" style="edgeStyle=orthogonalEdgeStyle;rounded=0;orthogonalLoop=1;jettySize=auto;html=1;endArrow=oval;endFill=1;" edge="1" parent="1" source="30hyAyVBiut64HNMQ8CZ-295" target="30hyAyVBiut64HNMQ8CZ-299">
          <mxGeometry relative="1" as="geometry" />
        </mxCell>
        <mxCell id="30hyAyVBiut64HNMQ8CZ-294" style="edgeStyle=orthogonalEdgeStyle;rounded=0;orthogonalLoop=1;jettySize=auto;html=1;exitX=1;exitY=0;exitDx=0;exitDy=0;endArrow=none;endFill=0;" edge="1" parent="1" source="30hyAyVBiut64HNMQ8CZ-295" target="30hyAyVBiut64HNMQ8CZ-292">
          <mxGeometry relative="1" as="geometry" />
        </mxCell>
        <mxCell id="30hyAyVBiut64HNMQ8CZ-295" value="Cliente" style="rounded=0;whiteSpace=wrap;html=1;" vertex="1" parent="1">
          <mxGeometry y="2385" width="120" height="60" as="geometry" />
        </mxCell>
        <mxCell id="30hyAyVBiut64HNMQ8CZ-296" style="edgeStyle=orthogonalEdgeStyle;rounded=0;orthogonalLoop=1;jettySize=auto;html=1;endArrow=oval;endFill=1;" edge="1" parent="1" source="30hyAyVBiut64HNMQ8CZ-298" target="30hyAyVBiut64HNMQ8CZ-300">
          <mxGeometry relative="1" as="geometry" />
        </mxCell>
        <mxCell id="30hyAyVBiut64HNMQ8CZ-297" style="edgeStyle=orthogonalEdgeStyle;rounded=0;orthogonalLoop=1;jettySize=auto;html=1;exitX=0;exitY=0;exitDx=0;exitDy=0;endArrow=none;endFill=0;" edge="1" parent="1" source="30hyAyVBiut64HNMQ8CZ-298" target="30hyAyVBiut64HNMQ8CZ-292">
          <mxGeometry relative="1" as="geometry" />
        </mxCell>
        <mxCell id="30hyAyVBiut64HNMQ8CZ-298" value="Cliente" style="rounded=0;whiteSpace=wrap;html=1;" vertex="1" parent="1">
          <mxGeometry x="240" y="2385" width="120" height="60" as="geometry" />
        </mxCell>
        <mxCell id="30hyAyVBiut64HNMQ8CZ-299" value="CPF" style="text;html=1;align=center;verticalAlign=middle;whiteSpace=wrap;rounded=0;" vertex="1" parent="1">
          <mxGeometry x="30" y="2320" width="60" height="30" as="geometry" />
        </mxCell>
        <mxCell id="30hyAyVBiut64HNMQ8CZ-300" value="CNPJ" style="text;html=1;align=center;verticalAlign=middle;whiteSpace=wrap;rounded=0;" vertex="1" parent="1">
          <mxGeometry x="270" y="2320" width="60" height="30" as="geometry" />
        </mxCell>
        <mxCell id="30hyAyVBiut64HNMQ8CZ-301" value="t" style="text;html=1;align=center;verticalAlign=middle;whiteSpace=wrap;rounded=0;" vertex="1" parent="1">
          <mxGeometry x="185" y="2200" width="55" height="40" as="geometry" />
        </mxCell>
      </root>
    </mxGraphModel>
  </diagram>
</mxfile>
